<?xml version="1.0" standalone="no"?>
<!DOCTYPE svg PUBLIC "-//W3C//DTD SVG 20010904//EN"
 "http://www.w3.org/TR/2001/REC-SVG-20010904/DTD/svg10.dtd">
<svg version="1.0" xmlns="http://www.w3.org/2000/svg"
 width="1004.000000pt" height="1004.000000pt" viewBox="0 0 1004.000000 1004.000000"
 preserveAspectRatio="xMidYMid meet">

<g transform="translate(0.000000,1004.000000) scale(0.100000,-0.100000)"
fill="#000000" stroke="none">
<path d="M602 7968 c-21 -21 -13 -38 23 -54 l35 -14 0 -940 0 -940 230 0 230
0 2 937 3 936 30 17 c20 11 30 24 30 41 l0 24 -285 3 c-214 2 -289 -1 -298
-10z"/>
<path d="M4064 7972 c-5 -4 -71 -97 -145 -207 -239 -353 -464 -661 -652 -890
-50 -60 -257 -278 -461 -482 l-370 -373 45 0 45 0 964 959 c851 846 964 961
954 977 -10 17 -28 19 -190 21 -98 2 -184 0 -190 -5z"/>
<path d="M5000 7965 c-7 -8 -10 -23 -7 -32 4 -15 678 -1791 716 -1885 l11 -28
245 0 244 0 -28 78 c-16 42 -126 334 -246 647 -119 314 -271 714 -337 890 -66
176 -125 326 -131 333 -7 9 -66 12 -232 12 -185 0 -225 -3 -235 -15z"/>
<path d="M9883 7968 c-5 -7 -39 -92 -76 -188 -36 -96 -188 -497 -337 -890
-150 -393 -285 -750 -301 -793 l-29 -78 36 3 36 3 142 375 c78 206 243 639
366 962 184 487 220 590 210 603 -15 18 -34 19 -47 3z"/>
<path d="M1775 5675 c-96 -123 -135 -165 -151 -165 -24 0 -74 -35 -74 -52 0
-6 7 -16 15 -22 13 -9 1 -31 -81 -141 -117 -159 -131 -183 -109 -191 9 -4 17
-5 19 -3 1 2 18 27 36 54 82 122 205 278 227 288 30 14 51 2 77 -43 19 -31 19
-36 3 -120 -21 -108 -21 -140 -1 -168 31 -44 118 -23 425 104 175 72 307 124
315 124 2 0 -8 -16 -21 -36 -81 -119 63 -148 192 -40 26 22 35 24 64 16 50
-14 186 -12 272 4 42 8 122 30 179 50 89 30 105 32 118 20 13 -13 12 -17 -3
-42 -45 -69 -62 -113 -50 -130 16 -26 126 -20 253 12 84 22 362 109 429 134 9
4 8 -3 -5 -23 -17 -26 -17 -28 0 -40 21 -16 69 -4 207 51 48 19 105 41 128 49
41 14 53 8 27 -15 -33 -26 -77 -109 -74 -137 l3 -28 80 1 c93 2 255 40 473
112 78 26 142 48 142 47 0 0 -9 -25 -21 -55 -19 -50 -19 -55 -4 -66 27 -20
105 9 214 80 l69 44 22 -23 c33 -35 117 -67 190 -73 79 -5 203 17 325 58 79
27 90 28 105 15 9 -8 23 -15 31 -15 8 0 85 23 172 50 87 28 163 50 168 50 6 0
-5 -19 -24 -42 -60 -74 -69 -104 -41 -132 33 -34 170 -7 424 85 125 44 145 49
157 36 13 -13 10 -21 -20 -68 -46 -71 -52 -93 -30 -114 23 -24 111 -16 263 24
95 24 360 108 434 137 17 7 17 6 1 -26 -9 -18 -14 -42 -11 -54 6 -25 44 -46
82 -46 57 0 238 44 392 95 133 45 167 52 186 44 17 -8 44 -7 105 6 46 9 85 14
88 11 3 -2 1 -17 -4 -33 -7 -19 -18 -29 -39 -34 -94 -19 -156 -99 -103 -132
26 -17 67 1 113 48 l42 45 125 10 c218 18 450 75 457 113 5 23 -11 22 -114
-13 -95 -33 -215 -54 -356 -65 l-88 -6 2 39 c2 69 -5 71 -176 46 l-50 -7 26
44 c14 24 44 57 67 74 l41 29 17 -23 c15 -23 17 -23 30 -6 32 44 -2 76 -64 60
-31 -7 -110 -85 -134 -131 -15 -28 -30 -35 -175 -82 -176 -58 -316 -91 -382
-92 -73 0 -68 31 24 137 30 33 54 66 54 72 0 21 -25 11 -65 -28 -35 -34 -65
-47 -239 -105 -338 -114 -516 -151 -516 -109 0 9 16 40 36 69 37 53 37 53 19
80 -17 27 -17 28 6 47 75 60 80 156 6 128 -33 -13 -77 -64 -92 -107 -12 -37
-16 -39 -121 -77 -203 -72 -361 -111 -385 -96 -18 11 -2 42 60 113 54 60 59
79 24 84 -13 2 -24 13 -27 27 -9 37 -60 58 -121 52 -55 -6 -141 -50 -213 -110
-29 -25 -82 -48 -184 -83 -140 -48 -146 -49 -263 -49 -126 0 -159 9 -205 55
-20 20 -19 20 25 61 49 45 64 81 45 104 -35 42 -114 -11 -126 -85 -6 -33 -15
-48 -45 -70 -44 -31 -199 -114 -204 -108 -2 2 18 46 45 98 49 94 60 130 40
130 -9 0 -45 -50 -53 -73 -7 -22 -430 -153 -590 -182 -121 -23 -127 -19 -78
52 22 32 49 69 60 83 28 34 27 60 -2 60 -29 0 -121 -30 -249 -81 -54 -21 -104
-39 -110 -39 -16 0 54 71 120 122 55 43 61 52 37 62 -9 3 -39 -15 -75 -44 -55
-43 -82 -55 -273 -119 -316 -105 -507 -146 -507 -108 0 6 16 34 35 61 36 51
43 84 23 104 -8 8 -2 21 25 51 45 50 56 86 33 109 -15 15 -19 15 -51 -2 -37
-20 -95 -97 -95 -126 0 -12 -26 -25 -102 -48 -57 -18 -125 -37 -153 -43 -56
-13 -218 -16 -252 -5 l-22 7 19 42 c24 52 25 75 4 127 -26 64 -84 86 -144 55
-38 -20 -50 -43 -50 -98 l0 -44 -327 -131 c-315 -126 -413 -159 -434 -147 -13
8 -11 67 5 158 16 88 13 109 -20 153 l-23 31 70 33 c96 45 173 96 246 164 100
92 154 176 113 176 -4 0 -31 -29 -59 -65 -28 -36 -84 -91 -124 -123 -89 -71
-287 -177 -287 -154 0 4 54 77 120 162 66 85 119 159 117 164 -9 27 -33 3
-152 -149z m904 -181 c25 -32 27 -83 6 -124 -18 -35 -33 -37 -69 -9 -19 15
-25 27 -21 40 5 15 1 19 -16 19 -19 0 -21 4 -15 33 12 65 78 88 115 41z m663
-11 c-14 -26 -61 -68 -68 -61 -3 4 11 25 32 47 37 42 54 48 36 14z m3399 10
c-14 -26 -71 -79 -71 -66 0 13 63 83 74 83 4 0 2 -8 -3 -17z m-1515 -27 c-15
-23 -56 -54 -56 -42 0 3 14 21 31 41 35 39 51 40 25 1z m914 19 c6 -8 10 -20
8 -26 -4 -12 -308 -113 -315 -105 -8 7 86 81 145 113 64 36 140 45 162 18z
m-3540 -156 c22 -18 31 -32 24 -37 -57 -38 -86 -52 -122 -58 -23 -4 -42 -3
-42 2 0 20 85 125 99 124 4 -1 22 -14 41 -31z m5495 -99 c-16 -16 -36 -30 -44
-30 -11 0 -5 10 17 30 42 39 64 39 27 0z"/>
<path d="M7522 5558 c-18 -18 -15 -28 8 -28 13 0 20 7 20 20 0 23 -10 26 -28
8z"/>
<path d="M658 3453 l-3 -1368 -28 -13 c-37 -18 -45 -41 -22 -58 28 -21 557
-20 575 1 17 20 9 49 -15 53 -47 9 -45 -49 -45 1291 l0 1266 97 97 98 98 -45
0 c-40 0 -49 -5 -97 -52 l-53 -52 0 52 0 52 -230 0 -230 0 -2 -1367z"/>
<path d="M2110 4815 c0 -5 111 -179 935 -1455 532 -826 533 -828 634 -933 179
-187 404 -317 663 -381 97 -25 317 -49 346 -39 6 3 12 16 12 29 0 28 0 28 -94
42 -89 14 -198 67 -253 124 -36 37 -544 818 -1447 2225 l-251 392 -272 0
c-150 1 -273 -1 -273 -4z"/>
<path d="M6180 4811 c0 -5 72 -199 161 -432 214 -563 650 -1713 784 -2069 60
-157 113 -291 118 -297 11 -15 412 -19 434 -5 10 6 1034 2685 1067 2790 7 20
4 22 -26 22 l-34 0 -46 -122 c-247 -652 -941 -2479 -950 -2501 -8 -21 -13 -25
-19 -15 -4 7 -52 132 -107 278 -108 284 -139 367 -597 1573 l-299 787 -243 0
c-134 0 -243 -4 -243 -9z"/>
<path d="M5400 3781 c-8 -5 -18 -8 -22 -5 -13 8 -51 -17 -103 -68 -49 -50
-139 -95 -151 -77 -9 16 -32 10 -78 -22 -25 -17 -50 -27 -56 -24 -13 8 -52 -4
-45 -15 3 -4 -2 -10 -10 -14 -8 -3 -15 -11 -15 -19 0 -11 -62 -41 -80 -40 -14
2 -60 -40 -60 -54 0 -20 29 -42 56 -43 11 0 24 -3 27 -7 7 -6 119 -5 125 2 2
2 -4 17 -13 34 -8 17 -12 31 -7 31 10 0 54 -31 67 -47 7 -8 39 -13 95 -14 46
-1 95 -6 108 -12 13 -6 35 -34 49 -61 14 -28 29 -53 34 -56 16 -10 49 -161 49
-223 0 -60 22 -160 41 -183 4 -5 13 -44 19 -85 7 -42 20 -86 31 -102 12 -17
18 -35 14 -47 -4 -13 -2 -20 7 -20 7 0 36 -18 63 -40 28 -22 76 -58 108 -80
36 -26 55 -45 50 -53 -4 -6 -6 -24 -5 -39 2 -19 -2 -28 -12 -28 -8 0 -46 -31
-84 -69 -39 -38 -73 -67 -76 -64 -3 3 -30 -15 -60 -41 -30 -25 -62 -46 -72
-46 -9 0 -53 -20 -98 -44 -45 -24 -99 -47 -121 -51 -38 -6 -64 -14 -110 -31
-11 -4 -28 -6 -37 -5 -9 1 -43 -12 -75 -30 -80 -44 -86 -49 -72 -65 16 -20 32
-17 47 6 7 11 22 20 35 20 12 0 32 13 45 30 20 25 27 28 44 19 11 -6 26 -8 34
-5 11 4 10 -1 -3 -22 -9 -15 -23 -35 -31 -44 -8 -9 -11 -21 -7 -27 7 -13 45 9
95 55 31 28 137 94 152 94 3 0 6 -6 5 -12 -1 -33 4 -48 16 -48 12 0 20 11 56
88 11 23 27 42 36 42 8 0 32 10 53 23 20 12 72 40 114 60 42 21 86 50 97 65
32 42 52 61 110 104 29 22 56 49 58 59 7 24 20 24 26 2 4 -17 5 -17 6 0 1 21
46 24 58 3 10 -16 46 -36 68 -36 8 0 19 8 23 18 4 9 25 43 46 75 27 39 42 54
47 45 6 -11 20 -84 21 -105 0 -5 4 -16 10 -27 13 -25 29 -141 22 -160 -3 -9
-10 -13 -15 -10 -5 3 -6 -1 -3 -9 3 -8 1 -18 -5 -22 -6 -3 -11 -1 -11 5 0 6
-5 8 -11 4 -8 -5 -8 -9 1 -14 16 -10 6 -25 -28 -43 -15 -8 -61 -33 -102 -55
-41 -22 -102 -48 -135 -58 -33 -10 -66 -22 -73 -27 -21 -17 -7 -32 26 -29 24
3 32 -1 32 -12 0 -22 14 -20 66 9 25 14 47 25 49 25 2 0 3 -11 2 -24 -3 -38
14 -35 36 7 22 44 93 107 119 107 10 0 18 4 18 10 0 5 14 8 31 6 29 -3 30 -2
27 30 -1 18 1 36 5 40 4 4 7 18 7 31 0 12 5 42 11 66 11 38 10 47 -13 89 -25
48 -37 150 -20 176 5 6 32 14 61 17 39 3 57 10 68 25 11 16 18 18 34 10 11 -6
16 -16 13 -22 -4 -7 -3 -8 5 -4 6 4 9 12 6 17 -10 15 0 10 25 -11 13 -12 31
-19 39 -18 9 2 25 -5 36 -15 27 -25 31 -5 7 43 l-19 40 42 -4 c39 -4 42 -3 38
17 -4 22 -4 22 11 2 9 -11 26 -31 38 -44 l23 -24 -25 7 c-15 4 -8 -2 15 -15
22 -12 54 -34 70 -50 35 -32 102 -64 160 -75 22 -4 46 -14 53 -23 12 -14 12
-12 7 14 -3 17 -21 44 -39 60 -19 17 -39 44 -45 61 -14 36 -65 89 -78 81 -5
-3 -26 13 -48 35 -22 22 -50 44 -62 49 -13 5 -23 15 -23 24 0 8 -4 15 -9 15
-5 0 -27 27 -50 60 l-40 61 35 -7 c27 -5 34 -3 34 9 0 16 -45 53 -71 59 -16 4
-27 24 -28 54 -1 35 -101 144 -132 144 -10 0 -25 13 -34 30 -21 40 -51 59
-111 67 -27 3 -56 14 -64 23 -14 15 -58 33 -86 35 -13 0 -62 34 -78 54 -26 32
-81 81 -90 81 -19 0 -97 94 -110 132 -7 21 -15 36 -17 33 -3 -2 -18 19 -34 49
-15 29 -42 62 -59 74 -17 12 -43 31 -58 43 -20 17 -44 23 -100 26 -40 2 -80 0
-88 -6z m470 -456 c0 -2 -7 -6 -16 -9 -10 -4 -13 -2 -8 6 5 7 2 9 -8 5 -13 -5
-14 -1 -5 23 l11 28 13 -25 c7 -14 13 -27 13 -28z m-100 -4 c0 -11 -62 -41
-85 -41 -15 0 -15 3 -5 15 7 9 20 13 27 10 8 -3 24 2 36 10 25 17 27 18 27 6z
m145 -49 c-8 -8 -25 10 -19 20 4 6 9 5 15 -3 4 -7 6 -15 4 -17z m-260 -1 c-14
-14 -73 -26 -60 -13 6 5 19 12 30 15 34 8 40 8 30 -2z m-35 -60 c0 -11 -5 -23
-11 -27 -8 -4 -9 1 -4 16 5 15 4 20 -4 16 -6 -4 -11 -2 -11 3 0 6 7 11 15 11
8 0 15 -9 15 -19z m45 -60 c0 -36 -7 -39 -40 -13 -24 19 -24 20 -5 25 11 3 20
13 20 22 0 13 3 15 13 7 6 -6 12 -24 12 -41z m-8 -73 c-3 -8 -6 -5 -6 6 -1 11
2 17 5 13 3 -3 4 -12 1 -19z m-73 -3 c-4 -8 -11 -15 -17 -15 -7 0 -7 -4 1 -12
7 -7 12 -19 12 -27 0 -11 -4 -10 -15 5 -18 24 -19 51 -2 57 22 9 27 7 21 -8z
m52 -1 c-4 -9 -1 -23 5 -30 9 -11 8 -14 -4 -14 -19 0 -31 -16 -21 -31 4 -8 9
-8 17 0 6 6 16 11 22 11 5 0 4 -4 -3 -9 -7 -4 -14 -18 -15 -29 -1 -12 -4 -22
-8 -22 -3 0 -4 -11 -1 -25 3 -17 11 -25 26 -26 18 -1 18 -2 3 -6 -11 -3 -16
-11 -13 -19 3 -8 1 -14 -4 -14 -6 0 -10 7 -10 15 0 8 -9 15 -20 15 -11 0 -20
5 -20 10 0 6 5 10 10 10 17 0 11 24 -14 54 l-23 30 26 24 c16 15 21 26 14 29
-8 3 -7 10 5 24 20 23 36 25 28 3z m584 -216 c0 -4 -6 -8 -14 -8 -8 0 -17 4
-20 8 -2 4 4 8 15 8 10 0 19 -4 19 -8z m24 -27 c4 -5 -3 -7 -14 -4 -23 6 -26
13 -6 13 8 0 17 -4 20 -9z m-437 -72 c49 -51 61 -71 62 -101 1 -15 -16 -18
-74 -9 -16 2 -38 43 -42 76 -4 42 -11 57 -22 50 -12 -7 -24 12 -16 25 13 22
45 8 92 -41z m583 6 c18 -10 20 -14 8 -15 -23 0 -48 11 -48 21 0 12 11 11 40
-6z m99 -55 l16 -24 -28 18 c-15 10 -27 23 -27 28 0 16 22 4 39 -22z m-814 -1
c11 -17 -1 -21 -15 -4 -8 9 -8 15 -2 15 6 0 14 -5 17 -11z m375 -194 c-15 -28
-28 -32 -36 -11 -7 18 28 56 40 45 6 -5 4 -18 -4 -34z"/>
</g>
</svg>
